<?xml version="1.0" encoding="utf-8"?>

<svg version="1.1" xmlns="http://www.w3.org/2000/svg" xmlns:xlink="http://www.w3.org/1999/xlink" x="0px" y="0px"
	 width="20" height="20"
	 viewBox="0 0 45 45" enable-background="new 0 0 45 45" xml:space="preserve">

<path fill="#FFFFFF" d="M35.607,22.645c0.104-0.251,0.104-0.536,0-0.79c-0.054-0.127-0.129-0.242-0.226-0.338L22.981,9.116
			c-0.404-0.403-1.057-0.403-1.462,0c-0.404,0.404-0.404,1.058,0,1.462l10.638,10.637H9.848c-0.572,0-1.034,0.463-1.034,1.034
			c0,0.572,0.462,1.035,1.034,1.035h22.31L21.519,33.921c-0.404,0.404-0.404,1.059,0,1.461c0.203,0.202,0.466,0.304,0.731,0.304
			c0.265,0,0.53-0.102,0.731-0.304l12.401-12.4C35.479,22.886,35.554,22.771,35.607,22.645z"/>
<circle fill="none" stroke="#FFFFFF" stroke-miterlimit="10" cx="22.25" cy="22.249" r="20.434"/>

</svg>
