<?xml version="1.0" encoding="utf-8"?>
<!-- Generator: Adobe Illustrator 16.0.0, SVG Export Plug-In . SVG Version: 6.00 Build 0)  -->
<!DOCTYPE svg PUBLIC "-//W3C//DTD SVG 1.1//EN" "http://www.w3.org/Graphics/SVG/1.1/DTD/svg11.dtd">
<svg version="1.1" id="Capa_1" xmlns="http://www.w3.org/2000/svg" xmlns:xlink="http://www.w3.org/1999/xlink" x="0px" y="0px"
	 width="20" height="20" viewBox="95.945 -6.823 308.111 311.823"
	 enable-background="new 95.945 -6.823 308.111 311.823" xml:space="preserve">
<path fill="#FFFFFF" d="M121.641,305V140.05l-8.658,8.04c-1.894,1.749-4.343,2.707-6.906,2.707c-2.811,0-5.519-1.18-7.429-3.237
	c-3.801-4.094-3.565-10.522,0.525-14.33L249.998-6.823l46.401,43.087V22.577h61.4v70.699l43.023,39.95
	c4.098,3.815,4.331,10.243,0.524,14.333c-1.895,2.05-4.604,3.233-7.423,3.233c-2.576,0-5.03-0.964-6.908-2.714l-8.651-8.034V305
	H121.641z M358.079,284.72V121.209L249.998,20.851L141.916,121.214V284.72h61.961V181.455c0-11.081,9.015-20.097,20.096-20.097
	h52.048c11.081,0,20.097,9.016,20.097,20.097V284.72H358.079z M275.838,284.72V181.639h-51.681V284.72H275.838z M337.519,74.446
	V42.856h-20.841v12.239L337.519,74.446z"/>
<path fill="#FFFFFF" d="M397.42,136.89l-44.621-41.434V27.577h-51.4V47.73L249.998,0L102.58,136.89
	c-2.076,1.933-2.2,5.187-0.267,7.268c1.928,2.077,5.181,2.195,7.268,0.268l17.06-15.842V300h82.241h82.241h82.241V128.579
	l17.06,15.842c0.987,0.92,2.246,1.373,3.5,1.373c1.383,0,2.756-0.55,3.763-1.64C399.619,142.077,399.496,138.823,397.42,136.89z
	 M311.678,37.856h30.841v48.055l-30.841-28.635V37.856z M219.157,289.72V181.455c0-2.658,2.159-4.816,4.816-4.816h52.048
	c2.658,0,4.816,2.158,4.816,4.816V289.72H219.157z M363.079,289.72h-71.961V181.455c0-8.327-6.77-15.097-15.097-15.097h-52.048
	c-8.327,0-15.096,6.77-15.096,15.097V289.72h-71.961V119.034L249.998,14.027l73.4,68.157l29.401,27.299l0,0l10.28,9.545V289.72z"/>
</svg>
